<?xml version="1.0" encoding="utf-8"?>
<!-- Generator: Adobe Illustrator 25.4.1, SVG Export Plug-In . SVG Version: 6.00 Build 0)  -->
<svg version="1.1" id="Capa_1" xmlns="http://www.w3.org/2000/svg" xmlns:xlink="http://www.w3.org/1999/xlink" x="0px" y="0px"
	 viewBox="0 0 1920 1080" style="enable-background:new 0 0 1920 1080;" xml:space="preserve">
<style type="text/css">
	.st0{fill:#713886;}
	.st1{fill:#8CBD99;}
</style>
<g>
	<g>
		<g>
			<path class="st0" d="M833.4,688.1c-2.1,0-4-0.3-5.8-1c-1.8-0.7-3.3-1.6-4.6-2.8c-1.3-1.2-2.3-2.6-3-4.2c-0.7-1.6-1.1-3.4-1.1-5.3
				c0-2,0.4-3.8,1.3-5.5c0.9-1.6,2.1-3,3.7-4.2c1.6-1.2,3.5-2.1,5.7-2.8c2.2-0.7,4.6-1,7.3-1c2,0,4,0.2,6,0.5c2,0.4,3.7,0.8,5.3,1.4
				v-2.9c0-3.2-0.9-5.6-2.7-7.4c-1.8-1.8-4.4-2.7-7.8-2.7c-2.3,0-4.5,0.4-6.7,1.3c-2.2,0.8-4.5,2.1-6.8,3.6l-2.8-5.7
				c5.5-3.7,11.2-5.6,17.1-5.6c5.9,0,10.4,1.5,13.7,4.5s4.9,7.3,4.9,12.9v15.4c0,1.9,0.8,2.9,2.4,2.9v7.7c-0.9,0.2-1.6,0.3-2.2,0.3
				c-0.6,0.1-1.2,0.1-1.8,0.1c-1.7,0-3.1-0.4-4-1.3c-1-0.9-1.5-2-1.8-3.3l-0.2-2.7c-1.9,2.5-4.3,4.4-7.1,5.8
				C839.7,687.5,836.7,688.1,833.4,688.1z M835.9,681.5c2.2,0,4.2-0.4,6.2-1.2c1.9-0.8,3.4-1.9,4.5-3.3c1.1-1,1.7-2,1.7-3.1v-5.6
				c-1.5-0.6-3.1-1.1-4.9-1.4c-1.7-0.3-3.4-0.5-5-0.5c-3.2,0-5.8,0.7-7.9,2.1c-2,1.4-3.1,3.2-3.1,5.5c0,2.1,0.8,3.9,2.4,5.3
				C831.4,680.8,833.4,681.5,835.9,681.5z"/>
			<path class="st0" d="M886.7,687.7c-2.9,0-5.5-0.6-7.9-1.8c-2.4-1.2-4.4-2.8-6.2-4.8c-1.7-2-3-4.3-4-6.9c-1-2.6-1.4-5.4-1.4-8.2
				c0-3,0.5-5.9,1.5-8.6c1-2.7,2.3-5,4.1-7c1.7-2,3.8-3.6,6.2-4.7c2.4-1.2,5.1-1.8,8-1.8c3.4,0,6.4,0.8,9,2.4
				c2.6,1.6,4.7,3.8,6.4,6.4v-8.1h7.9v41.5c0,3.1-0.6,5.8-1.7,8.2c-1.1,2.4-2.7,4.4-4.8,6.1c-2,1.7-4.4,2.9-7.2,3.8
				c-2.8,0.9-5.8,1.3-9,1.3c-4.7,0-8.7-0.8-11.8-2.4c-3.1-1.6-5.8-3.8-7.9-6.7l5.1-4.7c1.6,2.3,3.7,4,6.3,5.2
				c2.6,1.2,5.3,1.8,8.3,1.8c1.8,0,3.6-0.2,5.3-0.7s3.1-1.3,4.4-2.3c1.3-1,2.2-2.3,3-3.9c0.7-1.6,1.1-3.5,1.1-5.6v-6.5
				c-1.5,2.6-3.6,4.6-6.3,6C892.4,687,889.6,687.7,886.7,687.7z M889.6,680.5c1.4,0,2.7-0.2,3.9-0.7c1.3-0.5,2.4-1.1,3.5-1.9
				c1.1-0.8,2-1.7,2.7-2.7c0.8-1,1.3-2.1,1.6-3.2v-11.2c-0.5-1.4-1.3-2.6-2.1-3.7c-0.9-1.1-1.9-2.1-3-2.9c-1.1-0.8-2.3-1.5-3.5-1.9
				c-1.3-0.5-2.5-0.7-3.8-0.7c-2,0-3.7,0.4-5.3,1.3c-1.5,0.8-2.9,2-4,3.3c-1.1,1.4-1.9,3-2.5,4.7c-0.6,1.7-0.9,3.5-0.9,5.4
				c0,2,0.3,3.8,1,5.5c0.7,1.7,1.6,3.2,2.8,4.5c1.2,1.3,2.6,2.3,4.2,3.1C885.9,680.1,887.7,680.5,889.6,680.5z"/>
			<path class="st0" d="M946.7,652.4c-3.5,0.1-6.6,0.9-9.3,2.4c-2.7,1.5-4.6,3.6-5.8,6.4v26.1h-9v-42.7h8.3v9.5
				c1.5-2.9,3.4-5.3,5.8-7.1c2.4-1.8,4.9-2.7,7.6-2.9c0.5,0,1,0,1.3,0c0.4,0,0.7,0,0.9,0.1V652.4z"/>
			<path class="st0" d="M972,688.1c-3.4,0-6.4-0.6-9.1-1.8c-2.7-1.2-5-2.8-6.9-4.8c-1.9-2-3.4-4.4-4.4-7.1c-1-2.7-1.6-5.5-1.6-8.4
				s0.5-5.8,1.6-8.4c1-2.7,2.5-5,4.4-7.1c1.9-2,4.2-3.6,6.9-4.8c2.7-1.2,5.7-1.8,9-1.8c3.3,0,6.3,0.6,9,1.8c2.7,1.2,5,2.8,6.9,4.8
				c1.9,2,3.4,4.4,4.4,7.1s1.5,5.5,1.5,8.4s-0.5,5.8-1.5,8.4c-1,2.7-2.5,5-4.4,7.1c-1.9,2-4.2,3.6-6.9,4.8
				C978.3,687.5,975.3,688.1,972,688.1z M959.2,666.1c0,2.1,0.3,4,1,5.7c0.7,1.7,1.5,3.3,2.7,4.5c1.1,1.3,2.5,2.3,4,3
				c1.5,0.7,3.2,1.1,5,1.1c1.8,0,3.5-0.4,5-1.1s2.9-1.8,4-3.1c1.1-1.3,2-2.8,2.7-4.6c0.7-1.7,1-3.6,1-5.7c0-2-0.3-3.9-1-5.7
				c-0.7-1.8-1.6-3.3-2.7-4.6c-1.1-1.3-2.5-2.3-4-3.1c-1.5-0.7-3.2-1.1-5-1.1c-1.7,0-3.4,0.4-4.9,1.1c-1.5,0.8-2.9,1.8-4,3.1
				c-1.1,1.3-2.1,2.8-2.7,4.6C959.6,662.2,959.2,664.1,959.2,666.1z"/>
			<path class="st1" d="M1014,687.3l-16.3-42.7h9.2l12.2,35.1l12.3-35.1h8.5l-16.3,42.7H1014z"/>
			<path class="st1" d="M1065.8,688.1c-3.3,0-6.3-0.6-9.1-1.8c-2.7-1.2-5-2.8-7-4.8c-1.9-2-3.4-4.4-4.5-7c-1.1-2.7-1.6-5.5-1.6-8.5
				c0-3,0.5-5.8,1.6-8.5c1.1-2.7,2.6-5.1,4.5-7.1c1.9-2,4.3-3.6,7-4.8s5.8-1.8,9.1-1.8c3.3,0,6.3,0.6,9,1.8c2.7,1.2,5,2.8,6.9,4.8
				c1.9,2,3.4,4.3,4.4,6.9c1,2.6,1.5,5.4,1.5,8.3c0,0.7,0,1.3-0.1,1.8c-0.1,0.6-0.1,1-0.2,1.4h-34.2c0.2,1.9,0.6,3.6,1.3,5.1
				c0.7,1.5,1.7,2.8,2.9,4c1.2,1.1,2.5,2,4,2.6c1.5,0.6,3.1,0.9,4.7,0.9c1.2,0,2.4-0.1,3.5-0.4c1.2-0.3,2.2-0.7,3.2-1.3
				c1-0.6,1.8-1.3,2.6-2.1c0.8-0.8,1.4-1.7,1.8-2.7l7.7,2.2c-1.5,3.2-3.9,5.8-7.3,7.9C1074.3,687.1,1070.3,688.1,1065.8,688.1z
				 M1078.8,662.8c-0.2-1.8-0.6-3.5-1.3-5c-0.7-1.5-1.7-2.8-2.8-3.9c-1.1-1.1-2.5-1.9-4-2.5c-1.5-0.6-3.1-0.9-4.8-0.9
				c-1.7,0-3.3,0.3-4.8,0.9c-1.5,0.6-2.8,1.4-4,2.5c-1.1,1.1-2.1,2.4-2.8,3.9c-0.7,1.5-1.1,3.2-1.3,5H1078.8z"/>
			<path class="st1" d="M1120.1,685.1c-1.1,0.5-2.7,1.2-4.7,1.8c-2,0.7-4.2,1-6.4,1c-1.4,0-2.7-0.2-4-0.6c-1.3-0.4-2.4-1-3.3-1.7
				c-1-0.8-1.7-1.8-2.2-3c-0.5-1.2-0.8-2.7-0.8-4.4v-26.7h-5.6v-6.9h5.6v-14h9v14h9.3v6.9h-9.3v23.8c0.1,1.5,0.6,2.6,1.4,3.3
				c0.8,0.7,1.9,1,3.1,1s2.5-0.2,3.6-0.7c1.1-0.4,2-0.8,2.5-1.1L1120.1,685.1z"/>
			<path class="st1" d="M1146.2,688.1c-3.3,0-6.3-0.6-9.1-1.8c-2.7-1.2-5-2.8-7-4.8c-1.9-2-3.4-4.4-4.5-7c-1.1-2.7-1.6-5.5-1.6-8.5
				c0-3,0.5-5.8,1.6-8.5c1.1-2.7,2.6-5.1,4.5-7.1c1.9-2,4.3-3.6,7-4.8c2.7-1.2,5.8-1.8,9.1-1.8c3.3,0,6.3,0.6,9,1.8
				c2.7,1.2,5,2.8,6.9,4.8c1.9,2,3.4,4.3,4.4,6.9s1.5,5.4,1.5,8.3c0,0.7,0,1.3-0.1,1.8c-0.1,0.6-0.1,1-0.2,1.4h-34.2
				c0.2,1.9,0.6,3.6,1.3,5.1c0.7,1.5,1.7,2.8,2.9,4c1.2,1.1,2.5,2,4,2.6c1.5,0.6,3.1,0.9,4.7,0.9c1.2,0,2.4-0.1,3.6-0.4
				c1.2-0.3,2.2-0.7,3.2-1.3c1-0.6,1.8-1.3,2.6-2.1c0.8-0.8,1.4-1.7,1.8-2.7l7.7,2.2c-1.5,3.2-3.9,5.8-7.3,7.9
				C1154.7,687.1,1150.7,688.1,1146.2,688.1z M1159.2,662.8c-0.2-1.8-0.6-3.5-1.3-5c-0.7-1.5-1.7-2.8-2.8-3.9
				c-1.1-1.1-2.5-1.9-4-2.5c-1.5-0.6-3.1-0.9-4.8-0.9c-1.7,0-3.3,0.3-4.8,0.9c-1.5,0.6-2.8,1.4-4,2.5c-1.1,1.1-2.1,2.4-2.8,3.9
				c-0.7,1.5-1.1,3.2-1.3,5H1159.2z"/>
			<path class="st1" d="M1201.1,652.4c-3.5,0.1-6.6,0.9-9.3,2.4c-2.7,1.5-4.6,3.6-5.8,6.4v26.1h-9v-42.7h8.3v9.5
				c1.5-2.9,3.4-5.3,5.8-7.1c2.4-1.8,4.9-2.7,7.6-2.9c0.5,0,1,0,1.3,0c0.4,0,0.7,0,0.9,0.1V652.4z"/>
			<path class="st1" d="M1209.2,637.6v-9.9h9v9.9H1209.2z M1209.2,687.3v-42.7h9v42.7H1209.2z"/>
			<path class="st1" d="M1268.9,687.3h-9v-23.9c0-4-0.6-7-1.9-8.8c-1.3-1.8-3.2-2.7-5.7-2.7c-1.3,0-2.6,0.2-3.9,0.7
				c-1.3,0.5-2.5,1.2-3.7,2.1c-1.1,0.9-2.2,2-3.1,3.2c-0.9,1.2-1.6,2.6-2.1,4v25.4h-9v-42.7h8.2v8.6c1.6-2.9,4-5.2,7.1-6.8
				c3.1-1.7,6.5-2.5,10.3-2.5c2.6,0,4.7,0.5,6.3,1.4c1.6,0.9,2.9,2.2,3.9,3.8c1,1.6,1.6,3.5,2,5.6c0.4,2.1,0.6,4.3,0.6,6.7V687.3z"
				/>
			<path class="st1" d="M1292.3,688.1c-2.1,0-4-0.3-5.8-1c-1.8-0.7-3.3-1.6-4.6-2.8c-1.3-1.2-2.3-2.6-3-4.2
				c-0.7-1.6-1.1-3.4-1.1-5.3c0-2,0.4-3.8,1.3-5.5c0.9-1.6,2.1-3,3.7-4.2c1.6-1.2,3.5-2.1,5.7-2.8c2.2-0.7,4.6-1,7.3-1
				c2,0,4,0.2,6,0.5c2,0.4,3.7,0.8,5.3,1.4v-2.9c0-3.2-0.9-5.6-2.7-7.4c-1.8-1.8-4.4-2.7-7.8-2.7c-2.3,0-4.5,0.4-6.7,1.3
				c-2.2,0.8-4.5,2.1-6.8,3.6l-2.8-5.7c5.5-3.7,11.2-5.6,17.1-5.6c5.9,0,10.4,1.5,13.7,4.5c3.3,3,4.9,7.3,4.9,12.9v15.4
				c0,1.9,0.8,2.9,2.4,2.9v7.7c-0.9,0.2-1.6,0.3-2.2,0.3c-0.6,0.1-1.2,0.1-1.8,0.1c-1.7,0-3.1-0.4-4-1.3c-1-0.9-1.5-2-1.8-3.3
				l-0.2-2.7c-1.9,2.5-4.3,4.4-7.1,5.8C1298.5,687.5,1295.5,688.1,1292.3,688.1z M1294.8,681.5c2.2,0,4.2-0.4,6.2-1.2
				c1.9-0.8,3.4-1.9,4.5-3.3c1.1-1,1.7-2,1.7-3.1v-5.6c-1.5-0.6-3.1-1.1-4.9-1.4c-1.7-0.3-3.4-0.5-5-0.5c-3.2,0-5.8,0.7-7.9,2.1
				c-2,1.4-3.1,3.2-3.1,5.5c0,2.1,0.8,3.9,2.4,5.3C1290.3,680.8,1292.3,681.5,1294.8,681.5z"/>
			<path class="st1" d="M1352.7,652.4c-3.5,0.1-6.6,0.9-9.3,2.4c-2.7,1.5-4.6,3.6-5.8,6.4v26.1h-9v-42.7h8.3v9.5
				c1.5-2.9,3.4-5.3,5.8-7.1c2.4-1.8,4.9-2.7,7.6-2.9c0.5,0,1,0,1.3,0c0.4,0,0.7,0,0.9,0.1V652.4z"/>
			<path class="st1" d="M1360.8,687.3v-42.7h9v42.7H1360.8z M1367.3,638.5l-5.9-1.8l4.7-9h8.6L1367.3,638.5z"/>
			<path class="st1" d="M1393.5,688.1c-2.1,0-4-0.3-5.8-1c-1.8-0.7-3.3-1.6-4.6-2.8c-1.3-1.2-2.3-2.6-3-4.2
				c-0.7-1.6-1.1-3.4-1.1-5.3c0-2,0.4-3.8,1.3-5.5c0.9-1.6,2.1-3,3.7-4.2c1.6-1.2,3.5-2.1,5.7-2.8c2.2-0.7,4.6-1,7.3-1
				c2,0,4,0.2,6,0.5c2,0.4,3.7,0.8,5.3,1.4v-2.9c0-3.2-0.9-5.6-2.7-7.4c-1.8-1.8-4.4-2.7-7.8-2.7c-2.3,0-4.5,0.4-6.7,1.3
				c-2.2,0.8-4.5,2.1-6.8,3.6l-2.8-5.7c5.5-3.7,11.2-5.6,17.1-5.6c5.9,0,10.4,1.5,13.7,4.5c3.3,3,4.9,7.3,4.9,12.9v15.4
				c0,1.9,0.8,2.9,2.4,2.9v7.7c-0.9,0.2-1.6,0.3-2.2,0.3c-0.6,0.1-1.2,0.1-1.8,0.1c-1.7,0-3.1-0.4-4-1.3c-1-0.9-1.5-2-1.8-3.3
				l-0.2-2.7c-1.9,2.5-4.3,4.4-7.1,5.8C1399.8,687.5,1396.7,688.1,1393.5,688.1z M1396,681.5c2.2,0,4.2-0.4,6.2-1.2
				c1.9-0.8,3.4-1.9,4.5-3.3c1.1-1,1.7-2,1.7-3.1v-5.6c-1.5-0.6-3.1-1.1-4.9-1.4c-1.7-0.3-3.4-0.5-5-0.5c-3.2,0-5.8,0.7-7.9,2.1
				c-2,1.4-3.1,3.2-3.1,5.5c0,2.1,0.8,3.9,2.4,5.3C1391.5,680.8,1393.5,681.5,1396,681.5z"/>
		</g>
		<g>
			<g>
				<g>
					<path class="st0" d="M818.9,585.1c-3.8-4.7-5.7-8.9-5.7-12.7s3.2-8.7,9.5-14.9c3.7-3.5,7.6-5.3,11.7-5.3c4.1,0,9.9,3.7,17.2,11
						c2.1,2.5,5,4.9,8.8,7.2c3.8,2.3,7.4,3.4,10.6,3.4c13.7,0,20.5-5.6,20.5-16.8c0-3.4-1.9-6.2-5.6-8.5c-3.8-2.3-8.4-3.9-14-5
						c-5.6-1-11.6-2.7-18.1-5c-6.5-2.3-12.5-5-18.1-8.1c-5.6-3.1-10.3-8-14-14.7c-3.8-6.7-5.6-14.7-5.6-24.2
						c0-12.9,4.8-24.2,14.4-33.9c9.6-9.6,22.8-14.4,39.4-14.4c8.8,0,16.9,1.1,24.2,3.4c7.3,2.3,12.3,4.6,15.1,6.9l5.5,4.2
						c4.6,4.3,6.8,7.9,6.8,10.8c0,2.9-1.8,7-5.3,12.1c-5,7.4-10.1,11-15.4,11c-3.1,0-6.9-1.5-11.5-4.4c-0.4-0.3-1.3-1-2.5-2.2
						c-1.3-1.2-2.4-2.1-3.4-2.9c-3.1-1.9-7-2.9-11.8-2.9s-8.8,1.1-11.9,3.4c-3.2,2.3-4.7,5.4-4.7,9.5c0,4,1.9,7.3,5.6,9.8
						c3.8,2.5,8.4,4.2,14,5.1c5.6,0.9,11.7,2.2,18.3,4.1c6.6,1.8,12.7,4.1,18.3,6.7c5.6,2.6,10.3,7.2,14,13.8
						c3.8,6.5,5.6,14.6,5.6,24.2c0,9.6-1.9,18-5.7,25.3c-3.8,7.3-8.8,12.9-15,16.9c-11.9,7.8-24.6,11.7-38.2,11.7
						c-6.9,0-13.5-0.8-19.6-2.5c-6.2-1.7-11.2-3.8-15-6.3c-7.8-4.7-13.2-9.3-16.3-13.7L818.9,585.1z"/>
					<path class="st0" d="M976.9,470c-1.1,2.1-3.1,3.6-5.8,4.5c-2.8,0.9-6.5,1.3-11.1,1.3c-4.6,0-8.3-0.4-11.1-1.3
						c-2.8-0.9-4.7-2.4-5.8-4.6c-1.1-2.2-1.8-4.2-2-5.8c-0.2-1.7-0.3-4.2-0.3-7.6c0-3.4,0.1-5.9,0.3-7.6c0.2-1.7,0.8-3.6,1.9-5.6
						c2.1-4,7.8-6,17.2-6c9.3,0,14.9,2,16.8,6c1.2,2.2,1.9,4.2,2.1,5.8c0.2,1.7,0.3,4.2,0.3,7.6c0,3.4-0.1,5.9-0.3,7.6
						C978.7,466,978,467.9,976.9,470z M940.7,510.9c0-3.4,0.1-5.9,0.3-7.6c0.2-1.7,0.8-3.6,1.9-5.8c2.1-3.8,7.8-5.7,17.2-5.7
						c7.1,0,12.1,1.3,15,3.7c2.5,2.1,3.8,5.2,4,9.5c0.1,1.5,0.2,3.6,0.2,6.4v77.2c0,3.4-0.1,5.9-0.3,7.6c-0.2,1.7-0.9,3.6-2.1,5.8
						c-1.9,3.8-7.6,5.7-17,5.7c-9.3,0-14.9-2-17-6c-1-2.2-1.7-4.1-1.9-5.7c-0.2-1.6-0.3-4.2-0.3-7.7V510.9z"/>
					<path class="st0" d="M1030.4,507c6.9-10.4,15.2-15.7,24.9-15.7c15,0,26.2,6.4,33.5,19.2c1.6-2.2,3.6-4.5,5.8-6.9
						c2.3-2.4,5.9-5.1,10.9-7.9c5-2.9,10.1-4.3,15.4-4.3c11.8,0,21.6,4.5,29.6,13.6c7.9,9,11.9,24,11.9,44.9v38.6
						c0,3.4-0.1,5.9-0.3,7.6c-0.2,1.7-0.9,3.6-2.1,5.8c-1.9,4-7.6,6-17,6c-9.3,0-14.9-2.1-17-6.2c-1-2.2-1.7-4.2-1.9-5.8
						c-0.2-1.7-0.3-4.2-0.3-7.6v-38.6c0-12.8-4.6-19.2-13.7-19.2c-5.1,0-8.6,1.7-10.5,5.1c-1.8,3.4-2.8,8.2-2.8,14.3v38.6
						c0,3.5-0.1,6.1-0.3,7.7c-0.2,1.6-0.9,3.5-2.1,5.7c-2.1,4-7.8,6-17.2,6c-9.3,0-14.9-2.1-17-6.2c-1-2.2-1.7-4.2-1.9-5.8
						c-0.2-1.7-0.3-4.2-0.3-7.6v-38.6c0-12.8-4.6-19.2-13.7-19.2c-8.8,0-13.2,6.4-13.2,19.2v39c0,3.4-0.1,5.9-0.3,7.6
						c-0.2,1.7-0.9,3.6-2.1,5.8c-2.2,3.8-7.9,5.7-17.2,5.7c-9.3,0-14.9-2-17-6c-1-2.2-1.7-4.1-1.9-5.7c-0.2-1.6-0.3-4.2-0.3-7.7
						v-77.6c0-3.4,0.1-5.9,0.3-7.6c0.2-1.7,0.9-3.6,2.1-5.6c2.2-4,7.4-6,15.7-6c8.2,0,13.6,1.3,16.1,4
						C1029.2,498.2,1030.4,502,1030.4,507z"/>
					<path class="st0" d="M1191,506.1c12.4-11.5,26.5-17.2,42.4-17.2s29.9,5.7,42.1,17.1c12.2,11.4,18.3,25.9,18.3,43.6
						c0,12.2-3.2,23.1-9.5,32.5c-6.3,9.5-14,16.5-23.1,21c-9,4.5-18.4,6.7-28.1,6.7s-19.1-2.4-28.2-7.2
						c-9.1-4.8-16.8-11.8-23.1-21.2c-6.3-9.3-9.4-19.9-9.4-31.7C1172.5,532.1,1178.7,517.6,1191,506.1z M1225,480.7l-6.6,1.5
						c-4.4,0-8-4.3-10.8-13c-1.2-3.5-1.8-6.5-1.8-9c0-2.5,0.4-4.4,1.3-5.7c1.5-1.9,4.2-3.5,8.2-4.6l36.4-11.2c3.8-1,6-1.5,6.6-1.5
						c4.4,0,7.9,4.3,10.6,13c1.2,3.5,1.8,6.5,1.8,8.9c0,2.4-0.4,4.3-1.3,5.6c-1.5,1.9-4.2,3.5-8.2,4.6L1225,480.7z M1218.6,565.5
						c4.7,3.6,9.5,5.4,14.3,5.4c4.9,0,9.7-1.8,14.6-5.5c4.9-3.7,7.3-9.1,7.3-16.3c0-7.2-2.3-12.6-6.8-16.1
						c-4.6-3.5-9.5-5.3-14.8-5.3s-10.2,1.8-14.8,5.5c-4.6,3.7-6.8,9.1-6.8,16.2C1211.5,556.6,1213.9,561.9,1218.6,565.5z"/>
					<path class="st0" d="M1368.3,491.5c14.7,0,26.9,5.6,36.7,16.9c9.8,11.2,14.7,25,14.7,41.1v38.8c0,3.4-0.1,5.9-0.3,7.6
						c-0.2,1.7-0.8,3.6-1.9,5.6c-2.1,4-7.8,6-17.2,6c-10.4,0-16.5-2.7-18.1-8.2c-0.9-2.5-1.3-6.2-1.3-11.2v-38.8
						c0-6-1.7-10.7-5.2-14.1c-3.5-3.4-8.1-5.1-13.9-5.1c-5.8,0-10.5,1.8-14.1,5.3c-3.6,3.5-5.4,8.2-5.4,13.9v39
						c0,3.4-0.1,5.9-0.3,7.6c-0.2,1.7-0.9,3.6-2.1,5.6c-1.9,4-7.6,6-17,6c-9.3,0-14.9-2-17-6c-1-2.2-1.7-4.2-1.9-5.8
						c-0.2-1.7-0.3-4.2-0.3-7.6v-78.1c0-3.2,0.1-5.7,0.3-7.4c0.2-1.7,0.9-3.6,2.1-5.6c2.1-3.7,7.7-5.5,17-5.5c9,0,14.5,1.7,16.5,5.1
						c1.5,2.5,2.2,5.5,2.2,9c0.6-1,1.9-2.5,4-4.4c2.1-1.9,4-3.5,6-4.6C1356.8,493.2,1362.3,491.5,1368.3,491.5z"/>
				</g>
			</g>
		</g>
		<g>
			<path class="st1" d="M543.7,669.8c-0.1,0-0.2,0-0.3,0c-3.5-0.2-6.2-3.2-6.1-6.7c1-19.1,3.4-34.8,7.2-48.1
				c-4.3-0.9-8.8-0.4-12.8,1.7c-4.7,2.3-8.1,6.4-9.8,11.3c-2.9,8.6,0.6,18,8.3,22.7c3,1.8,4,5.8,2.1,8.8c-1.2,2-3.3,3.1-5.5,3.1
				c-1.1,0-2.3-0.3-3.3-0.9c-12.8-7.9-18.5-23.3-13.8-37.7c2.7-8.2,8.4-14.8,16.1-18.7c7.1-3.6,15.1-4.4,22.7-2.4
				c10-25.2,26.3-40.4,47.9-54.2c29.8-19.1,33.1-49.4,33.5-54.6c-10-44.2,10.2-68.3,17.3-75.1c1.5-18.7,9.8-29.6,16.8-35.5
				c7.9-6.7,15.5-8.6,16.3-8.8c1.9-0.4,3.9,0,5.4,1.2c1.5,1.2,2.4,3,2.4,5v35.7h5.6v-35.7c0-3.5,2.9-6.4,6.4-6.4s6.4,2.9,6.4,6.4
				v35.7c10.9,0.4,20.1,6.3,26.6,17.1c2.6,4.3,4.3,8.5,5.3,11.6l34.4,4.2c3.4,0.4,5.8,3.4,5.6,6.8c0,0.4-0.7,10.1-4.9,19.9
				c-6,14-16.6,21.7-29.8,21.7h-28.2l-0.2,0c-10.9,0.1-18.9-2.5-23.9-7.4c-3.4-3.4-5.2-7.8-5.2-12.8c0-3.5,2.9-6.4,6.4-6.4
				s6.4,2.9,6.4,6.4c0,2.1,0.7,3.1,1.4,3.8c1.1,1.1,4.8,3.7,14.8,3.7l28.5,0c14.3,0,19.4-15,21.2-23.7l-32.1-3.9
				c-2.7-0.3-4.9-2.3-5.5-5c0-0.1-1.4-6.3-5.2-12.4c-4.4-7.1-10.1-10.8-16.8-10.8h-23.5c-3.5,0-6.4-2.9-6.4-6.4v-32.1
				c-6.5,4.4-14.8,13.4-15.5,31.4c-0.1,1.9-1,3.6-2.4,4.8c-0.3,0.2-25.3,20.3-14.8,65.1c0.1,0.5,0.2,1.1,0.2,1.6
				c0,1.7-1.5,41.5-39.4,65.8c-27.2,17.4-49.9,37.2-53.4,104.4C549.9,667.2,547.1,669.8,543.7,669.8z"/>
			<path class="st1" d="M563.1,677.3h80.7c-0.4-0.8-0.9-1.7-1.6-2.5c-2.9-3.3-8.3-5-15.8-5h-7.6c0,0,0,0,0,0c0,0,0,0,0,0h-26.1
				c-3.5,0-6.4-2.9-6.4-6.4s2.9-6.4,6.4-6.4h24.5c14.3-8.1,22-21.1,21.4-35.9c-0.6-12.6-7.4-23.8-17.1-27.9
				c-3.2-1.4-4.8-5.1-3.4-8.4c1.4-3.2,5.1-4.8,8.4-3.4c14.3,6.1,24.1,21.4,24.8,39.1c0.6,14.1-4.7,27.3-14.6,37.4
				c6.4,1.4,11.5,4.2,15.2,8.4c6.8,7.8,5.8,17.1,5.6,18.2c-0.4,3.2-3.1,5.5-6.3,5.5h-88.1c-3.5,0-6.4-2.9-6.4-6.4
				C556.7,680.1,559.5,677.3,563.1,677.3z"/>
			<path class="st1" d="M729.5,677.3h18.2c-4.1-3.5-9.7-5.4-14.7-5.5c0,0-0.1,0-0.1,0c-0.2,0-0.3,0-0.5,0c-0.1,0-0.1,0-0.2,0
				c-0.1,0-0.3,0-0.4-0.1c-0.1,0-0.1,0-0.2,0c-0.1,0-0.3-0.1-0.4-0.1c-0.1,0-0.1,0-0.2-0.1c-0.1,0-0.2-0.1-0.4-0.1
				c-0.1,0-0.1,0-0.2-0.1c-0.2-0.1-0.3-0.2-0.5-0.3c-0.1,0-0.1-0.1-0.2-0.1c-0.1-0.1-0.2-0.1-0.3-0.2c-0.1,0-0.1-0.1-0.2-0.1
				c-0.1-0.1-0.2-0.1-0.3-0.2c-0.1,0-0.1-0.1-0.2-0.2c-0.1-0.1-0.2-0.2-0.3-0.3c0-0.1-0.1-0.1-0.1-0.2c-0.1-0.1-0.2-0.2-0.3-0.3
				c0-0.1-0.1-0.1-0.1-0.2c-0.1-0.1-0.2-0.2-0.2-0.3c0-0.1-0.1-0.1-0.1-0.2c-0.1-0.1-0.1-0.2-0.2-0.4c0-0.1-0.1-0.1-0.1-0.2
				c-0.1-0.1-0.1-0.2-0.2-0.4c0-0.1-0.1-0.1-0.1-0.2c0-0.1-0.1-0.2-0.1-0.4c0-0.1-0.1-0.2-0.1-0.3c0-0.1-0.1-0.3-0.1-0.4l0,0
				c0,0,0,0,0,0l-27.6-154.9c-0.6-3.5,1.7-6.8,5.2-7.4c3.5-0.6,6.8,1.7,7.4,5.2l26.8,150.2c14.7,2.5,24,12.9,26.7,22.5
				c0.5,1.9,0.1,4-1.1,5.6c-1.2,1.6-3.1,2.5-5.1,2.5h-29.7c-3.5,0-6.4-2.9-6.4-6.4C723.1,680.1,726,677.3,729.5,677.3z"/>
			<path class="st1" d="M671.8,677.3h30c-4.1-3.5-9.7-5.4-14.7-5.5c0,0-0.1,0-0.1,0c-0.2,0-0.3,0-0.5,0c-0.1,0-0.1,0-0.2,0
				c-0.1,0-0.3,0-0.4-0.1c-0.1,0-0.1,0-0.2,0c-0.1,0-0.3-0.1-0.4-0.1c-0.1,0-0.1,0-0.2-0.1c-0.1,0-0.2-0.1-0.4-0.1
				c-0.1,0-0.1-0.1-0.2-0.1c-0.2-0.1-0.3-0.2-0.5-0.3c-0.1,0-0.1-0.1-0.2-0.1c-0.1-0.1-0.2-0.1-0.3-0.2c-0.1,0-0.1-0.1-0.2-0.1
				c-0.1-0.1-0.2-0.1-0.3-0.2c-0.1-0.1-0.1-0.1-0.2-0.2c-0.1-0.1-0.2-0.2-0.3-0.3c-0.1-0.1-0.1-0.1-0.1-0.2
				c-0.1-0.1-0.2-0.2-0.2-0.3c0-0.1-0.1-0.1-0.1-0.2c-0.1-0.1-0.2-0.2-0.2-0.3c0-0.1-0.1-0.1-0.1-0.2c-0.1-0.1-0.1-0.2-0.2-0.3
				c0-0.1-0.1-0.1-0.1-0.2c-0.1-0.1-0.1-0.2-0.1-0.3c0-0.1-0.1-0.1-0.1-0.2c0-0.1-0.1-0.2-0.1-0.3c0-0.1-0.1-0.2-0.1-0.3
				c0-0.1,0-0.2-0.1-0.2c0-0.1-0.1-0.3-0.1-0.4l-15.5-89.5c-0.6-3.5,1.7-6.8,5.2-7.4c3.5-0.6,6.8,1.7,7.4,5.2l4.1,23.6
				c6.3-4.9,9.2-11.8,10.5-17.3c0.8-3.4,4.3-5.6,7.7-4.7c3.4,0.8,5.6,4.3,4.7,7.7c-3,12.6-10.2,22.4-20.6,28l8.2,47.5
				c14.7,2.5,24,12.9,26.7,22.5c0.5,1.9,0.1,4-1.1,5.6c-1.2,1.6-3.1,2.5-5.1,2.5h-41.5c-3.5,0-6.4-2.9-6.4-6.4
				C665.4,680.1,668.3,677.3,671.8,677.3z"/>
			<path class="st1" d="M543.2,562.8c3.5,0,6.4,2.9,6.4,6.4s-2.9,6.4-6.4,6.4c-28,0-50.9,22.8-50.9,50.9c0,28,22.8,50.9,50.9,50.9
				c3.5,0,6.4,2.9,6.4,6.4c0,3.5-2.9,6.4-6.4,6.4c-35.1,0-63.6-28.6-63.6-63.6S508.1,562.8,543.2,562.8z"/>
			<path class="st1" d="M705.9,441.4c3.5-0.5,6.7,1.9,7.3,5.3c0.5,3.5-1.9,6.7-5.3,7.3l-8.4,1.3c-0.3,0.1-0.7,0.1-1,0.1
				c-3.1,0-5.8-2.3-6.3-5.4c-0.5-3.5,1.9-6.7,5.3-7.3L705.9,441.4z"/>
		</g>
	</g>
	<g>
		<path class="st0" d="M1430,489c-1.5,0-2.9-0.3-4.2-0.8s-2.4-1.2-3.3-2.1c-0.9-0.9-1.7-2-2.2-3.2c-0.5-1.2-0.8-2.5-0.8-4
			c0-1.4,0.3-2.7,0.8-4c0.5-1.2,1.2-2.3,2.2-3.2c0.9-0.9,2-1.6,3.3-2.1s2.7-0.8,4.2-0.8c1.5,0,2.9,0.3,4.2,0.8
			c1.3,0.5,2.4,1.2,3.3,2.1c0.9,0.9,1.7,1.9,2.2,3.2c0.5,1.2,0.8,2.5,0.8,4c0,1.4-0.3,2.8-0.8,4c-0.5,1.2-1.3,2.3-2.2,3.2
			c-0.9,0.9-2.1,1.6-3.3,2.1C1432.8,488.7,1431.5,489,1430,489z M1430,487.6c1.3,0,2.4-0.2,3.5-0.6c1.1-0.4,2-1,2.8-1.8
			c0.8-0.8,1.4-1.7,1.9-2.7c0.5-1.1,0.7-2.2,0.7-3.5c0-1.2-0.2-2.4-0.7-3.4c-0.5-1.1-1.1-2-1.9-2.7c-0.8-0.8-1.7-1.4-2.8-1.8
			s-2.3-0.7-3.6-0.7c-1.3,0-2.5,0.2-3.6,0.7c-1.1,0.4-2,1.1-2.8,1.8c-0.8,0.8-1.4,1.7-1.8,2.7c-0.4,1-0.7,2.2-0.7,3.4
			c0,1.2,0.2,2.4,0.7,3.4c0.4,1.1,1.1,2,1.8,2.8c0.8,0.8,1.7,1.4,2.8,1.8C1427.5,487.4,1428.7,487.6,1430,487.6z M1425.5,472.8h5.4
			c0.6,0,1.1,0.1,1.6,0.4c0.5,0.2,0.9,0.6,1.2,0.9c0.3,0.4,0.6,0.8,0.8,1.3s0.3,1,0.3,1.5c0,0.8-0.2,1.5-0.6,2.1
			c-0.4,0.7-0.9,1.1-1.6,1.4l2.9,4.6h-3l-2.5-4.1h-1.8v4.1h-2.6V472.8z M1430.7,478.6c0.5,0,0.8-0.2,1.1-0.5
			c0.3-0.3,0.4-0.7,0.4-1.3c0-0.6-0.2-1-0.5-1.3c-0.3-0.3-0.7-0.4-1.1-0.4h-2.5v3.5H1430.7z"/>
	</g>
</g>
</svg>
